<svg id="line_icons" height="512" viewBox="0 0 74 74" width="512" xmlns="http://www.w3.org/2000/svg" data-name="line icons"><path d="m55.033 60.955h-43.033a1 1 0 0 1 -.923-.616 24.064 24.064 0 0 1 -1.873-9.3 24.313 24.313 0 0 1 48.626 0 24.1 24.1 0 0 1 -1.868 9.3 1 1 0 0 1 -.929.616zm-42.361-2h41.684a22.054 22.054 0 0 0 1.469-7.916 22.313 22.313 0 0 0 -44.626 0 22.026 22.026 0 0 0 1.473 7.916z"/><path d="m59.136 60.955h-51.248a5.45 5.45 0 0 1 -5.409-4.466 31.511 31.511 0 1 1 62.066 0 5.451 5.451 0 0 1 -5.409 4.466zm-25.624-39.428a29.493 29.493 0 0 0 -29.064 34.614 3.454 3.454 0 0 0 3.44 2.814h51.248a3.453 3.453 0 0 0 3.439-2.814 29.493 29.493 0 0 0 -29.063-34.614z"/><path d="m39.05 60.955h-11.076a1 1 0 0 1 -1-.908c-.018-.194-.033-.389-.033-.588a6.567 6.567 0 0 1 13.134 0c0 .2-.016.394-.034.588a1 1 0 0 1 -.991.908zm-10.077-2h9.078a4.567 4.567 0 0 0 -9.078 0z"/><path d="m29.82 56.292a1 1 0 0 1 -.934-.644l-4.933-12.885c-.442-1.123.155-4.08.432-5.3a1 1 0 0 1 1.542-.6c.034.023.829.572 1.689 1.254 1.686 1.336 2.077 1.943 2.237 2.36l5.014 13.08a1 1 0 1 1 -1.867.714l-5.015-13.081a6.9 6.9 0 0 0 -1.611-1.508l-.338-.264a9.538 9.538 0 0 0 -.215 2.631l4.933 12.885a1 1 0 0 1 -.934 1.358z"/><path d="m17.094 35.5a1 1 0 0 1 -.7-.287l-5.142-5.055a1 1 0 0 1 1.4-1.426l5.148 5.059a1 1 0 0 1 -.7 1.713z"/><path d="m49.93 35.5a1 1 0 0 1 -.7-1.713l5.141-5.055a1 1 0 0 1 1.4 1.426l-5.141 5.055a1 1 0 0 1 -.7.287z"/><path d="m33.512 31.26a1 1 0 0 1 -1-1v-2.534a1 1 0 0 1 2 0v2.534a1 1 0 0 1 -1 1z"/><path d="m24.562 32.562a1 1 0 0 1 -.876-.516l-.909-1.646a1 1 0 1 1 1.75-.967l.909 1.644a1 1 0 0 1 -.874 1.483z"/><path d="m18.334 37.645a1 1 0 0 1 -.62-.215l-1.878-1.485a1 1 0 0 1 1.241-1.569l1.878 1.484a1 1 0 0 1 -.621 1.785z"/><path d="m12.845 44.215a1 1 0 0 1 -.43-.1l-1.1-.525a1 1 0 0 1 .861-1.806l1.1.525a1 1 0 0 1 -.431 1.9z"/><path d="m12.3 52.039h-2.1a1 1 0 1 1 0-2h2.1a1 1 0 1 1 0 2z"/><path d="m42.462 32.562a1 1 0 0 1 -.874-1.483l.909-1.644a1 1 0 1 1 1.75.967l-.909 1.644a1 1 0 0 1 -.876.516z"/><path d="m48.689 37.645a1 1 0 0 1 -.62-1.785l1.878-1.484a1 1 0 1 1 1.24 1.569l-1.878 1.485a1 1 0 0 1 -.62.215z"/><path d="m54.179 44.215a1 1 0 0 1 -.431-1.9l1.1-.525a1 1 0 1 1 .861 1.806l-1.1.525a1 1 0 0 1 -.43.094z"/><path d="m56.825 52.039h-2.1a1 1 0 0 1 0-2h2.1a1 1 0 0 1 0 2z"/><path d="m70.945 29.993c-.03 0-.06 0-.091 0a1 1 0 0 1 -.906-1.086 12.785 12.785 0 0 0 -11.574-13.865 1 1 0 1 1 .179-1.993 14.787 14.787 0 0 1 13.387 16.033 1 1 0 0 1 -.995.911z"/><path d="m66.164 29.993c-.03 0-.06 0-.091 0a1 1 0 0 1 -.906-1.086 8.56 8.56 0 0 0 -7.749-9.28 1 1 0 1 1 .179-1.992 10.56 10.56 0 0 1 9.562 11.451 1 1 0 0 1 -.995.907z"/><path d="m61.042 29.533c-.029 0-.06 0-.09 0a1 1 0 0 1 -.907-1.086 3.411 3.411 0 0 0 -3.088-3.7 1 1 0 0 1 .18-1.992 5.413 5.413 0 0 1 4.9 5.871 1 1 0 0 1 -.995.907z"/></svg>