<svg xmlns="http://www.w3.org/2000/svg" xmlns:xlink="http://www.w3.org/1999/xlink" version="1.1" x="0px" y="0px" viewBox="0 0 1024 1280" style="enable-background:new 0 0 1024 1024;" xml:space="preserve"><g><g><path d="M885.5,894.5c-6.8,0-13.7,0-20.5,0c-18.7,0-37.4,0-56.1,0c-27.5,0-54.9,0-82.4,0c-33.4,0-66.8,0-100.2,0    c-36.4,0-72.9,0-109.3,0c-36.7,0-73.4,0-110.2,0c-33.8,0-67.5,0-101.3,0c-28.1,0-56.2,0-84.3,0c-19.5,0-39,0-58.5,0    c-8,0-16.1,0.4-24.1,0c-11.2-0.6-9.2-12.9-9.2-21.1c0-16,0-32.1,0-48.1c0-25.6,0-51.2,0-76.8c0-32.4,0-64.8,0-97.1    c0-36,0-71.9,0-107.9c0-36.8,0-73.6,0-110.4c0-34.7,0-69.4,0-104.2c0-29.7,0-59.5,0-89.2c0-21.9,0-43.9,0-65.8c0-11,0-22,0-33.1    c0-5.9,2.4-11,9-11.3c1.9-0.1,3.8,0,5.7,0c13.3,0,26.6,0,39.9,0c23.7,0,47.3,0,71,0c30.9,0,61.8,0,92.7,0c35.3,0,70.7,0,106,0    c36.9,0,73.7,0,110.6,0c35.5,0,71,0,106.5,0c31.3,0,62.7,0,94,0c24,0,48,0,72,0c13.9,0,27.8,0,41.7,0c2.3,0,4.6-0.1,6.8,0    c6.2,0.4,9.1,4.9,9.1,10.7c0,10.4,0,20.8,0,31.2c0,21.4,0,42.7,0,64.1c0,29.4,0,58.8,0,88.2c0,34.5,0,69,0,103.6    c0,36.9,0,73.8,0,110.8c0,36.1,0,72.2,0,108.2c0,32.5,0,65,0,97.5c0,26,0,52,0,78.1c0,16.7,0,33.4,0,50.1    C894.5,880,896.9,894.1,885.5,894.5c-12.8,0.5-12.9,20.5,0,20c16.8-0.6,28.9-13.7,29-30.3c0-3.5,0-7,0-10.5c0-16.1,0-32.3,0-48.4    c0-26,0-52,0-78c0-32.6,0-65.2,0-97.8c0-36.5,0-73,0-109.5c0-37.3,0-74.5,0-111.8c0-34.8,0-69.7,0-104.5c0-29.7,0-59.5,0-89.2    c0-21.4,0-42.7,0-64.1c0-10.2,0.1-20.4,0-30.5c-0.1-16.5-12.2-29.8-29-30.3c-1.8-0.1-3.6,0-5.4,0c-13.4,0-26.8,0-40.2,0    c-23.9,0-47.8,0-71.7,0c-31.3,0-62.5,0-93.8,0c-35.9,0-71.8,0-107.6,0c-37.2,0-74.4,0-111.6,0c-35.8,0-71.7,0-107.5,0    c-31.3,0-62.6,0-93.8,0c-23.6,0-47.2,0-70.9,0c-13.2,0-26.3,0-39.5,0c-2.6,0-5.1-0.1-7.7,0.2c-15.8,1.7-26.2,14.8-26.3,30.3    c-0.1,10.4,0,20.8,0,31.2c0,21.7,0,43.3,0,65c0,29.7,0,59.5,0,89.2c0,35.1,0,70.2,0,105.2c0,37.1,0,74.2,0,111.3    c0,36.5,0,72.9,0,109.4c0,32.5,0,65,0,97.5c0,25.8,0,51.7,0,77.5c0,16,0,32,0,48c0,3.3,0,6.7,0,10c0.1,16.5,12.3,29.6,29,30.1    c7.2,0.2,14.5,0,21.8,0c19.1,0,38.3,0,57.4,0c28.2,0,56.3,0,84.5,0c33.9,0,67.9,0,101.8,0c37,0,74,0,111.1,0    c36.9,0,73.9,0,110.8,0c33.7,0,67.4,0,101.1,0c27.8,0,55.5,0,83.3,0c18.6,0,37.1,0,55.7,0c6.5,0,13.1,0,19.6,0    C898.4,914.5,898.4,894.5,885.5,894.5z"/></g></g><g><g><path d="M826.1,512c-0.1,65.2-20.4,128.9-58.1,182.1c-36.2,51.2-88.5,91.2-147.4,112.7    c-62.1,22.7-130.6,25.4-194.3,7.4c-61.3-17.3-116.1-53.5-156.7-102.4c-40.8-49.1-65.8-111-70.7-174.6    c-5-65.4,10.2-131.3,44.2-187.5c32.9-54.4,82.1-97.9,139.9-124.2c59.4-27,127.7-34.4,191.7-21.3c62.6,12.8,120.3,44.7,164.5,90.9    c44.3,46.3,73.5,105.7,83.4,169.1C825,479.9,826,496,826.1,512c0,12.9,20,12.9,20,0c-0.1-68.9-21.5-137.1-61.6-193.2    c-39.4-55.2-94.8-97.6-158.6-120.9c-65.2-23.8-138.1-26.3-204.9-7.4c-64.8,18.3-123.6,56.6-166.4,108.6    c-43.9,53.3-70.5,118.9-75.8,187.8c-5.3,68.9,11.4,139,47.2,198.1C260.8,742,312.7,788.5,373.5,816    c64.3,29.1,136.6,37.2,205.8,23.2c66-13.4,127.4-47.6,174-96.2c46.7-48.8,78.3-111.7,88.6-178.6c2.7-17.4,4.1-34.9,4.2-52.5    C846.1,499.1,826.1,499.1,826.1,512z"/></g></g><g><g><path d="M565.7,512c-0.2,22-13.9,42.8-34.9,50.3c-21.6,7.7-45.4,1.3-60.2-16.2c-14.5-17.2-16-42.7-4.5-61.8    c11.3-18.8,34-29.4,55.7-25.2C547.1,464.2,565.4,486.1,565.7,512c0.1,12.9,20.1,12.9,20,0c-0.3-30.9-19.5-58.2-48.4-69.2    c-28.4-10.8-62.5-1.5-81.7,21.9c-19.6,23.9-22.9,58.2-6.8,85c16.1,26.8,47.7,40.4,78.3,34.4c34-6.7,58.3-37.9,58.7-72.1    C585.8,499.1,565.8,499.1,565.7,512z"/></g></g><g><g><path d="M519.1,455.4c17.3-13.9,34.7-27.8,52-41.7c27.8-22.3,55.6-44.6,83.4-66.9c6.4-5.1,12.7-10.2,19.1-15.3    c4.2-3.4,3.5-10.6,0-14.1c-4.2-4.2-9.9-3.4-14.1,0c-17.3,13.9-34.7,27.8-52,41.7c-27.8,22.3-55.6,44.6-83.4,66.9    c-6.4,5.1-12.7,10.2-19.1,15.3c-4.2,3.4-3.5,10.6,0,14.1C509.1,459.6,514.8,458.8,519.1,455.4L519.1,455.4z"/></g></g><g><g><path d="M349.7,708.2c18.8-13.9,37.6-27.9,56.5-41.8c30-22.2,60.1-44.5,90.1-66.7c6.9-5.1,13.9-10.3,20.8-15.4    c4.3-3.2,6.5-8.7,3.6-13.7c-2.5-4.3-9.3-6.8-13.7-3.6c-18.8,13.9-37.6,27.9-56.5,41.8c-30,22.2-60.1,44.5-90.1,66.7    c-6.9,5.1-13.9,10.3-20.8,15.4c-4.3,3.2-6.5,8.7-3.6,13.7C338.5,708.9,345.3,711.4,349.7,708.2L349.7,708.2z"/></g></g><g><g><path d="M457,507c-13.9-18.8-27.9-37.6-41.8-56.5c-22.2-30-44.5-60.1-66.7-90.1c-5.1-6.9-10.3-13.9-15.4-20.8    c-3.2-4.3-8.7-6.5-13.7-3.6c-4.3,2.5-6.8,9.3-3.6,13.7c13.9,18.8,27.9,37.6,41.8,56.5c22.2,30,44.5,60.1,66.7,90.1    c5.1,6.9,10.3,13.9,15.4,20.8c3.2,4.3,8.7,6.5,13.7,3.6C457.7,518.1,460.2,511.3,457,507L457,507z"/></g></g><g><g><path d="M708.2,674.3c-13.9-18.8-27.9-37.6-41.8-56.5c-22.2-30-44.5-60.1-66.7-90.1c-5.1-6.9-10.3-13.9-15.4-20.8    c-3.2-4.3-8.7-6.5-13.7-3.6c-4.3,2.5-6.8,9.3-3.6,13.7c13.9,18.8,27.9,37.6,41.8,56.5c22.2,30,44.5,60.1,66.7,90.1    c5.1,6.9,10.3,13.9,15.4,20.8c3.2,4.3,8.7,6.5,13.7,3.6C708.9,685.5,711.4,678.7,708.2,674.3L708.2,674.3z"/></g></g><text x="0" y="1039" fill="#000000" font-size="5px" font-weight="bold" font-family="'Helvetica Neue', Helvetica, Arial-Unicode, Arial, Sans-serif">Created by shashank singh</text><text x="0" y="1044" fill="#000000" font-size="5px" font-weight="bold" font-family="'Helvetica Neue', Helvetica, Arial-Unicode, Arial, Sans-serif">from the Noun Project</text></svg>