<?xml version="1.0" encoding="utf-8"?>
<!-- Generator: Adobe Illustrator 16.0.0, SVG Export Plug-In . SVG Version: 6.00 Build 0)  -->
<!DOCTYPE svg PUBLIC "-//W3C//DTD SVG 1.1//EN" "http://www.w3.org/Graphics/SVG/1.1/DTD/svg11.dtd">
<svg version="1.1" id="Layer_1" xmlns="http://www.w3.org/2000/svg" xmlns:xlink="http://www.w3.org/1999/xlink" x="0px" y="0px"
	 width="200px" height="200px" viewBox="0 0 200 200" enable-background="new 0 0 200 200" xml:space="preserve">
<g>
	<path fill="#333" d="M183.611,126.374c-10.698-9.229-35.228-15.125-54.218-17.073c-1.477-6.725-5.524-12.553-11.215-16.312
		c8.536-27.208,15.452-66.239,15.528-66.84c1.309-9.853-5.638-18.93-15.49-20.238c-0.419-0.054-0.875-0.084-1.377-0.084
		c-10.379,0-43.612,14.836-46.525,36.748c-1.952,14.692,7.11,36.931,11.101,45.818c0.806,1.789,2.149,4.671,3.812,7.928
		c-4.014,3.986-6.848,9.191-7.64,15.141c-0.17,1.271-0.133,2.525-0.118,3.773c-25.533,7.699-59.699,21.296-63.26,22.992
		c-8.966,4.291-12.775,15.064-8.491,24.027c3.648,7.646,26.241,22.628,44.913,22.628h0.003c4.44,0,8.464-0.853,11.957-2.519
		c13.372-6.384,27.055-26.12,32.316-34.314c1.028-1.598,2.626-4.177,4.372-7.205c0.334,0.062,0.639,0.183,0.981,0.229
		c1.176,0.159,2.343,0.236,3.497,0.236c4.09,0,7.932-1.043,11.424-2.739c3.462,4.093,7.632,8.818,12.812,14.447
		c15.202,16.541,31.529,32.693,34.648,35.388c3.271,2.821,7.456,4.374,11.763,4.374h0.008c5.241,0,10.218-2.281,13.643-6.255
		c3.469-4.016,6.275-15.665,6.527-27.1C194.772,150.782,193.601,134.987,183.611,126.374z M78.037,43.604
		c2.244-16.868,31.727-29.97,39.137-29.97h0.016c5.592,0.747,9.54,5.897,8.795,11.489c-0.958,7.228-8.384,41.343-15.08,64.542
		c-1.209-0.342-2.411-0.707-3.696-0.875c-5.589-0.746-10.949,0.35-15.56,2.747C84.002,76.205,76.443,55.579,78.037,43.604z
		 M59.236,175.335c-2.438,1.163-5.333,1.757-8.601,1.757h-0.003c-16.065,0-35.756-13.733-37.882-18.184
		c-2.431-5.098-0.271-11.215,4.82-13.649c4.428-2.115,37.164-14.859,61.16-22.231c2.134,6.55,6.76,12.036,12.927,15.231
		C82.99,152.928,70.021,170.184,59.236,175.335z M110.037,132.324c-2.115,0.776-4.374,1.149-6.736,1.096
		c-0.67-0.016-1.332,0.03-2.013-0.061c-2.1-0.289-4.033-0.975-5.828-1.88c-4.398-2.198-7.712-6.033-9.271-10.644
		c-0.834-2.466-1.18-5.098-0.894-7.837c0.015-0.167-0.008-0.335,0.015-0.518c0.45-3.378,1.815-6.452,3.812-8.993
		c1.659-2.115,3.781-3.804,6.174-5.037c2.545-1.309,5.383-2.115,8.396-2.115c0.817,0,1.644,0.061,2.479,0.167
		c0.867,0.122,1.675,0.365,2.488,0.594c2.595,0.715,4.938,1.932,6.916,3.583c2.542,2.124,4.443,4.884,5.569,8.004
		c0.883,2.457,1.278,5.105,1.034,7.858c-0.021,0.274,0.016,0.549-0.021,0.838c-0.571,4.245-2.625,7.958-5.517,10.781
		C114.762,129.996,112.525,131.411,110.037,132.324z M186.79,159.259c-0.25,11.488-3.104,20.413-4.632,22.186
		c-3.539,4.108-10.311,4.618-14.427,1.057c-5.562-4.794-30.334-29.991-46.068-48.335c4.345-4.048,7.388-9.519,8.218-15.765
		c0.053-0.411,0-0.807,0.037-1.217c17.713,1.932,39.602,7.318,48.604,15.086C186.09,138.792,186.958,151.984,186.79,159.259z"/>
</g>
</svg>
