<?xml version="1.0" encoding="windows-1252"?>
<!-- Generator: Adobe Illustrator 16.0.0, SVG Export Plug-In . SVG Version: 6.00 Build 0)  -->
<!DOCTYPE svg PUBLIC "-//W3C//DTD SVG 1.1//EN" "http://www.w3.org/Graphics/SVG/1.1/DTD/svg11.dtd">
<svg version="1.1" xmlns="http://www.w3.org/2000/svg" xmlns:xlink="http://www.w3.org/1999/xlink" x="0px" y="0px" width="27px" height="10.463px" viewBox="0 0 27 10.463" style="enable-background:new 0 0 27 10.463;" xml:space="preserve">
<g id="Layer_1_1_">
	<path style="fill:#FFFFFF;" d="M22.429,6.716c0,0-1.644,0.696-4.539-0.762l-5.785-2.78C9.147,1.647,7.465,2.36,7.465,2.36l-0.002,0   c0,0-2.789,1.34-2.887,1.385c0,0,1.683-0.713,4.64,0.814l5.785,2.779c2.895,1.459,4.539,0.763,4.539,0.763L22.429,6.716z"/>
	<path style="fill:#FFFFFF;" d="M27,4.521c0,0-1.645,0.697-4.539-0.762l-5.785-2.78c-2.958-1.527-4.641-0.813-4.641-0.813l-0.002,0   c0,0-2.789,1.339-2.887,1.384c0,0,1.683-0.713,4.641,0.814l5.786,2.78c2.895,1.458,4.538,0.762,4.538,0.762L27,4.521z"/>
	<path style="fill:#FFFFFF;" d="M17.854,8.911c0,0-1.645,0.696-4.54-0.763L7.529,5.369C4.571,3.843,2.889,4.556,2.889,4.556   l-0.001,0c0,0-2.789,1.339-2.888,1.384c0,0,1.682-0.713,4.641,0.813l5.785,2.78c2.895,1.459,4.54,0.763,4.54,0.763L17.854,8.911z"/>
</g>
<g id="Layer_1">
</g>
</svg>