<?xml version="1.0" encoding="utf-8"?>
<!-- Generator: Adobe Illustrator 22.1.0, SVG Export Plug-In . SVG Version: 6.00 Build 0)  -->
<svg version="1.1" id="Laag_1" xmlns="http://www.w3.org/2000/svg" xmlns:xlink="http://www.w3.org/1999/xlink" x="0px" y="0px"
	 viewBox="0 0 14.2 14.2" style="enable-background:new 0 0 14.2 14.2;" xml:space="preserve">
<style type="text/css">
	.st0{fill:#ED6D34;}
</style>
<path class="st0" d="M11.1,5.9C10.9,5.4,10.6,5,10,4.6C9.9,4.5,9.7,4.4,9.6,4.4C9.5,4.3,9.2,4.2,9.1,4.1c0.3,0.5,0.6,1,0.4,1.5
	C9.4,5.8,9,6.4,8.5,6.2C8,6.1,8.1,5.4,8,5.1C7.9,4.5,7.7,3.8,7.2,3.2C6.9,2.9,6.5,2.6,6,2.4C5.3,2.2,4.7,2,4,2.2
	c0.1,0,0.6,0.3,0.6,0.3C4.9,2.7,5.1,3,5.2,3.2c0.2,0.5,0,1.1-0.2,1.6C4.4,5.8,3.5,6.7,3,7.7C2.9,8.1,2.8,8.5,2.7,8.9
	C2.6,10,3.6,11.1,5,11.8C5.4,11.9,6,12.1,6.4,12c-1.2-0.4-1.6-0.8-1.8-1.3c-0.4-1.2,1.2-1.9,2-2.9C6.7,7.6,6.9,7.3,6.8,7
	c0-0.1-0.2-0.6-0.4-0.6c0.7-0.1,1.2,0.2,1.5,0.7C8.1,7.5,8.2,8,8.1,8.5C8.1,8.6,7.9,9.1,8.2,9.1C8.7,9.2,9.1,8.8,9,8.4
	C9,8.2,8.9,7.9,8.9,7.9c0.5,0.4,0.7,0.8,0.8,1.3C9.9,10,9.4,11,8.4,11.7c0.4-0.3,0.9-0.5,1.3-0.8c0.4-0.3,0.7-0.6,1-1
	c0.5-0.8,0.8-1.8,0.8-2.7C11.4,6.8,11.3,6.4,11.1,5.9z"/>
</svg>
