<?xml version="1.0" encoding="utf-8"?>
<!-- Generator: Adobe Illustrator 16.0.0, SVG Export Plug-In . SVG Version: 6.00 Build 0)  -->
<!DOCTYPE svg PUBLIC "-//W3C//DTD SVG 1.1//EN" "http://www.w3.org/Graphics/SVG/1.1/DTD/svg11.dtd">
<svg version="1.1" id="Layer_1" xmlns="http://www.w3.org/2000/svg" xmlns:xlink="http://www.w3.org/1999/xlink" x="0px" y="0px"
	 width="200px" height="200px" viewBox="0 0 200 200" enable-background="new 0 0 200 200" xml:space="preserve">
<g display="none">
	<path display="inline" fill="#333" d="M183.611,126.374c-10.698-9.229-35.228-15.125-54.218-17.073
		c-1.477-6.725-5.524-12.553-11.215-16.312c8.536-27.208,15.452-66.239,15.528-66.84c1.309-9.853-5.638-18.93-15.49-20.238
		c-0.419-0.054-0.875-0.084-1.377-0.084c-10.379,0-43.612,14.836-46.525,36.748c-1.952,14.692,7.11,36.931,11.101,45.818
		c0.806,1.789,2.149,4.671,3.812,7.928c-4.014,3.986-6.848,9.191-7.64,15.141c-0.17,1.271-0.133,2.525-0.118,3.773
		c-25.533,7.699-59.699,21.296-63.26,22.992c-8.966,4.291-12.775,15.064-8.491,24.027c3.648,7.646,26.241,22.628,44.913,22.628
		h0.003c4.44,0,8.464-0.853,11.957-2.519c13.372-6.384,27.055-26.12,32.316-34.314c1.028-1.598,2.626-4.177,4.372-7.205
		c0.334,0.062,0.639,0.183,0.981,0.229c1.176,0.159,2.343,0.236,3.497,0.236c4.09,0,7.932-1.043,11.424-2.739
		c3.462,4.093,7.632,8.818,12.812,14.447c15.202,16.541,31.529,32.693,34.648,35.388c3.271,2.821,7.456,4.374,11.763,4.374h0.008
		c5.241,0,10.218-2.281,13.643-6.255c3.469-4.016,6.275-15.665,6.527-27.1C194.772,150.782,193.601,134.987,183.611,126.374z
		 M78.037,43.604c2.244-16.868,31.727-29.97,39.137-29.97h0.016c5.592,0.747,9.54,5.897,8.795,11.489
		c-0.958,7.228-8.384,41.343-15.08,64.542c-1.209-0.342-2.411-0.707-3.696-0.875c-5.589-0.746-10.949,0.35-15.56,2.747
		C84.002,76.205,76.443,55.579,78.037,43.604z M59.236,175.335c-2.438,1.163-5.333,1.757-8.601,1.757h-0.003
		c-16.065,0-35.756-13.733-37.882-18.184c-2.431-5.098-0.271-11.215,4.82-13.649c4.428-2.115,37.164-14.859,61.16-22.231
		c2.134,6.55,6.76,12.036,12.927,15.231C82.99,152.928,70.021,170.184,59.236,175.335z M110.037,132.324
		c-2.115,0.776-4.374,1.149-6.736,1.096c-0.67-0.016-1.332,0.03-2.013-0.061c-2.1-0.289-4.033-0.975-5.828-1.88
		c-4.398-2.198-7.712-6.033-9.271-10.644c-0.834-2.466-1.18-5.098-0.894-7.837c0.015-0.167-0.008-0.335,0.015-0.518
		c0.45-3.378,1.815-6.452,3.812-8.993c1.659-2.115,3.781-3.804,6.174-5.037c2.545-1.309,5.383-2.115,8.396-2.115
		c0.817,0,1.644,0.061,2.479,0.167c0.867,0.122,1.675,0.365,2.488,0.594c2.595,0.715,4.938,1.932,6.916,3.583
		c2.542,2.124,4.443,4.884,5.569,8.004c0.883,2.457,1.278,5.105,1.034,7.858c-0.021,0.274,0.016,0.549-0.021,0.838
		c-0.571,4.245-2.625,7.958-5.517,10.781C114.762,129.996,112.525,131.411,110.037,132.324z M186.79,159.259
		c-0.25,11.488-3.104,20.413-4.632,22.186c-3.539,4.108-10.311,4.618-14.427,1.057c-5.562-4.794-30.334-29.991-46.068-48.335
		c4.345-4.048,7.388-9.519,8.218-15.765c0.053-0.411,0-0.807,0.037-1.217c17.713,1.932,39.602,7.318,48.604,15.086
		C186.09,138.792,186.958,151.984,186.79,159.259z"/>
</g>
<g>
	<path fill="#333" d="M98.657,196.711c-23.952,0-43.432-19.479-43.432-43.433c0-15.404,8.326-29.798,21.708-37.562
		c1.944-1.122,4.416-0.467,5.53,1.47c1.122,1.935,0.467,4.407-1.469,5.529c-10.902,6.319-17.679,18.035-17.679,30.563
		c0,19.488,15.855,35.343,35.343,35.343c19.481,0,35.327-15.854,35.327-35.343c0-12.528-6.769-24.244-17.672-30.563
		c-1.936-1.122-2.591-3.595-1.469-5.529c1.115-1.944,3.58-2.6,5.529-1.47c13.392,7.765,21.7,22.158,21.7,37.562
		C142.073,177.231,122.595,196.711,98.657,196.711z"/>
</g>
<g>
	<path fill="#333" d="M118.337,123.26c-2.238,0-4.045-1.81-4.045-4.044V25.564c0-8.697-7.015-15.775-15.642-15.775
		c-8.628,0-15.643,6.96-15.643,15.506v93.921c0,2.234-1.816,4.044-4.044,4.044c-2.244,0-4.044-1.81-4.044-4.044V25.295
		c0-13.01,10.641-23.596,23.731-23.596c13.08,0,23.73,10.704,23.73,23.865v93.652C122.381,121.45,120.571,123.26,118.337,123.26z"/>
</g>
<g>
	<path fill="#333" d="M98.653,175.05c-12.008,0-21.771-9.764-21.771-21.771c0-11.999,9.763-21.755,21.771-21.755
		c12,0,21.764,9.756,21.764,21.755C120.417,165.286,110.653,175.05,98.653,175.05z M98.653,139.612
		c-7.552,0-13.683,6.131-13.683,13.666c0,7.544,6.131,13.684,13.683,13.684c7.537,0,13.675-6.14,13.675-13.684
		C112.328,145.743,106.19,139.612,98.653,139.612z"/>
</g>
<g>
	<path fill="#333" d="M102.588,138.189V62.875c0-2.173-1.753-3.936-3.935-3.936c-2.181,0-3.941,1.763-3.941,3.936v75.314"/>
</g>
</svg>
